<svg width="17" height="17" viewBox="0 0 17 17" fill="none" xmlns="http://www.w3.org/2000/svg">
<g clip-path="url(#clip0_1_1202)">
<path d="M3.0258 10.4173C3.02559 10.4173 3.02539 10.4172 2.99219 10.833L3.02537 10.4172L3.00854 10.4159L2.99166 10.4157C2.87125 10.4142 2.75262 10.4219 2.64365 10.4471C2.54167 10.4707 2.39313 10.5223 2.27505 10.6515C2.13614 10.8034 2.10304 10.991 2.12837 11.1475C2.14997 11.2811 2.21091 11.3834 2.25173 11.4426C2.33525 11.5638 2.4469 11.6622 2.5124 11.7163C2.54955 11.747 2.5829 11.7723 2.60725 11.7902C2.61954 11.7993 2.62983 11.8067 2.63752 11.8122L2.64709 11.8188L2.65034 11.821L2.65156 11.8218L2.65206 11.8223L2.65228 11.8223C2.65238 11.8224 2.65247 11.8226 2.88574 11.4801L2.65248 11.8225L2.688 11.8468L2.72713 11.8645C2.84158 11.9166 2.99936 12.0891 3.1521 12.3434C3.22012 12.4567 3.27469 12.5649 3.31228 12.6451C3.33091 12.6849 3.34498 12.7168 3.35406 12.7381L3.36185 12.7566C3.70132 13.7544 4.65199 14.032 5.32738 14.0962C5.5963 14.1217 5.85206 14.1178 6.06453 14.1037C6.06544 14.3046 6.06664 14.5111 6.06785 14.7024C6.06857 14.8174 6.0693 14.9268 6.06995 15.026C6.07092 15.1714 6.07175 15.2954 6.07223 15.3846C3.11395 14.3528 1.04688 11.5287 1.04688 8.22664C1.04688 4.06252 4.2404 0.90625 8.44365 0.90625C12.6641 0.90625 16.0469 4.07915 16.0469 8.22664C16.0469 11.5357 14.0364 14.3551 11.0762 15.3785C11.0767 15.2732 11.0774 15.1225 11.0784 14.9403C11.0791 14.7996 11.0799 14.6401 11.0808 14.4682C11.0832 13.966 11.0856 13.3608 11.0856 12.8195C11.0856 12.4002 11.017 12.0351 10.897 11.728C11.5658 11.6256 12.2647 11.4523 12.8451 11.0598C13.7226 10.4666 14.2404 9.44903 14.2404 7.79075C14.2404 7.28587 14.1483 6.87838 13.9664 6.50923C13.8336 6.23986 13.6598 6.00577 13.47 5.78335C13.585 5.33009 13.6764 4.51697 13.289 3.54207L13.2011 3.32089L12.974 3.24964C12.6579 3.15046 12.3134 3.21523 12.05 3.2933C11.7678 3.37696 11.4796 3.50704 11.23 3.63541C10.9776 3.76515 10.7499 3.90081 10.5862 4.00331C10.5588 4.02044 10.5331 4.03671 10.5093 4.05194C9.88431 3.89837 9.22541 3.81965 8.57269 3.81965C7.91983 3.81965 7.26079 3.89841 6.63568 4.05203C6.61184 4.03682 6.58612 4.02057 6.55871 4.00346C6.395 3.90124 6.16736 3.76594 5.91513 3.63646C5.66553 3.50833 5.37759 3.37848 5.09563 3.29473C4.83251 3.21658 4.48886 3.15154 4.17345 3.249L3.94509 3.31957L3.8566 3.54161C3.46834 4.51587 3.5607 5.33159 3.67598 5.78518C3.48572 6.01436 3.32343 6.25308 3.20399 6.5296C3.04421 6.89951 2.9759 7.30183 2.9759 7.79075C2.9759 9.1947 3.3343 10.1421 3.97111 10.7615C3.85764 10.6877 3.74579 10.6299 3.64188 10.5847C3.4786 10.5136 3.33235 10.4727 3.22453 10.4492C3.17036 10.4374 3.12511 10.4297 3.09128 10.4249C3.07434 10.4225 3.06018 10.4207 3.04911 10.4195L3.03484 10.4181L3.02948 10.4177L3.02727 10.4174L3.02627 10.4173H3.0258ZM4.33879 11.063C4.90523 11.4537 5.58791 11.627 6.24739 11.729C6.20805 11.8286 6.1739 11.9342 6.14572 12.0456C5.96995 12.1011 5.75638 12.1418 5.54274 12.1228C5.25845 12.0976 4.93431 11.9663 4.66495 11.4946H4.66496L4.66338 11.492C4.56626 11.3244 4.45551 11.1827 4.33879 11.063Z" stroke="#6F3FF5"/>
</g>
<defs>
<clipPath id="clip0_1_1202">
<rect width="16" height="16" fill="white" transform="translate(0.546875 0.40625)"/>
</clipPath>
</defs>
</svg>
